<svg width="1280" height="720" xmlns="http://www.w3.org/2000/svg" xmlns:xlink="http://www.w3.org/1999/xlink" overflow="hidden"><defs><filter id="fx0" x="-10%" y="-10%" width="120%" height="120%" filterUnits="userSpaceOnUse" primitiveUnits="userSpaceOnUse"><feComponentTransfer color-interpolation-filters="sRGB"><feFuncR type="discrete" tableValues="0 0"/><feFuncG type="discrete" tableValues="0 0"/><feFuncB type="discrete" tableValues="0 0"/><feFuncA type="linear" slope="0.4" intercept="0"/></feComponentTransfer><feGaussianBlur stdDeviation="1.77778 1.77778"/></filter><filter id="fx1" x="-10%" y="-10%" width="120%" height="120%" filterUnits="userSpaceOnUse" primitiveUnits="userSpaceOnUse"><feComponentTransfer color-interpolation-filters="sRGB"><feFuncR type="discrete" tableValues="0 0"/><feFuncG type="discrete" tableValues="0 0"/><feFuncB type="discrete" tableValues="0 0"/><feFuncA type="linear" slope="0.4" intercept="0"/></feComponentTransfer><feGaussianBlur stdDeviation="1.77778 1.77778"/></filter><filter id="fx2" x="-10%" y="-10%" width="120%" height="120%" filterUnits="userSpaceOnUse" primitiveUnits="userSpaceOnUse"><feComponentTransfer color-interpolation-filters="sRGB"><feFuncR type="discrete" tableValues="0 0"/><feFuncG type="discrete" tableValues="0 0"/><feFuncB type="discrete" tableValues="0 0"/><feFuncA type="linear" slope="0.4" intercept="0"/></feComponentTransfer><feGaussianBlur stdDeviation="1.77778 1.77778"/></filter><filter id="fx3" x="-10%" y="-10%" width="120%" height="120%" filterUnits="userSpaceOnUse" primitiveUnits="userSpaceOnUse"><feComponentTransfer color-interpolation-filters="sRGB"><feFuncR type="discrete" tableValues="0 0"/><feFuncG type="discrete" tableValues="0 0"/><feFuncB type="discrete" tableValues="0 0"/><feFuncA type="linear" slope="0.4" intercept="0"/></feComponentTransfer><feGaussianBlur stdDeviation="1.77778 1.77778"/></filter><filter id="fx4" x="-10%" y="-10%" width="120%" height="120%" filterUnits="userSpaceOnUse" primitiveUnits="userSpaceOnUse"><feComponentTransfer color-interpolation-filters="sRGB"><feFuncR type="discrete" tableValues="0 0"/><feFuncG type="discrete" tableValues="0 0"/><feFuncB type="discrete" tableValues="0 0"/><feFuncA type="linear" slope="0.4" intercept="0"/></feComponentTransfer><feGaussianBlur stdDeviation="1.77778 1.77778"/></filter><clipPath id="clip5"><path d="M411.5 215.5 411.5 376.5 435.5 296ZM1.90735e-05 1.07288e-05 1280 1.07288e-05 1280 720 1.90735e-05 720Z" fill-rule="evenodd" clip-rule="evenodd"/></clipPath><clipPath id="clip6"><path d="M849.5 215.5 826.5 296 849.5 376.5ZM1.90735e-05 1.07288e-05 1280 1.07288e-05 1280 720 1.90735e-05 720Z" fill-rule="evenodd" clip-rule="evenodd"/></clipPath><clipPath id="clip7"><path d="M579.5 271.5 630.5 285.5 681.5 271.5ZM1.90735e-05 1.07288e-05 1280 1.07288e-05 1280 720 1.90735e-05 720Z" fill-rule="evenodd" clip-rule="evenodd"/></clipPath><clipPath id="clip8"><path d="M579.5 351.5 630.5 365.5 681.5 351.5ZM1.90735e-05 1.07288e-05 1280 1.07288e-05 1280 720 1.90735e-05 720Z" fill-rule="evenodd" clip-rule="evenodd"/></clipPath><clipPath id="clip9"><path d="M631 489.5 550.5 512.5 711.5 512.5ZM1.90735e-05 1.07288e-05 1280 1.07288e-05 1280 720 1.90735e-05 720Z" fill-rule="evenodd" clip-rule="evenodd"/></clipPath></defs><g><rect x="0" y="0" width="1280" height="720" fill="#FFFFFF"/><rect x="451.5" y="203.5" width="358" height="223" stroke="#042433" stroke-width="0.666667" stroke-miterlimit="8" fill="#E8E8E8"/><text font-family="Arial,Arial_MSFontService,sans-serif" font-weight="700" font-size="15" transform="translate(584.671 244)">Identification</text><text font-family="Arial,Arial_MSFontService,sans-serif" font-weight="700" font-size="15" transform="translate(600.005 323)">Analysis</text><text font-family="Arial,Arial_MSFontService,sans-serif" font-weight="700" font-size="15" transform="translate(586.918 402)">Assessment</text><rect x="451.5" y="165.5" width="358" height="38" stroke="#042433" stroke-width="0.666667" stroke-miterlimit="8" fill="#CEE8F7"/><text font-family="Arial,Arial_MSFontService,sans-serif" font-weight="700" font-size="16" transform="translate(570.588 190)">Risk Evaluation</text><rect x="451.5" y="115.5" width="358" height="39" stroke="#042433" stroke-width="0.666667" stroke-miterlimit="8" fill="#CEE8F7"/><text font-family="Arial,Arial_MSFontService,sans-serif" font-weight="700" font-size="16" transform="translate(482.718 141)">Scope Of Application, Context, Criteria</text><rect x="451.5" y="437.5" width="358" height="39" stroke="#042433" stroke-width="0.666667" stroke-miterlimit="8" fill="#CEE8F7"/><text font-family="Arial,Arial_MSFontService,sans-serif" font-weight="700" font-size="16" transform="translate(572.945 463)">Risk Treatment</text><rect x="356.5" y="115.5" width="39" height="361" stroke="#042433" stroke-width="0.666667" stroke-miterlimit="8" fill="#FFE7AD"/><text font-family="Arial,Arial_MSFontService,sans-serif" font-weight="700" font-size="16" transform="matrix(-1.83697e-16 -1 1 -1.83697e-16 381.714 424)">Communication and Consultation</text><rect x="866.5" y="115.5" width="38" height="361" stroke="#042433" stroke-width="0.666667" stroke-miterlimit="8" fill="#FFE7AD"/><text font-family="Arial,Arial_MSFontService,sans-serif" font-weight="700" font-size="16" transform="matrix(-1.83697e-16 -1 1 -1.83697e-16 891.429 399)">Monitoring and Verification</text><rect x="451.5" y="528.5" width="358" height="38" stroke="#042433" stroke-width="0.666667" stroke-miterlimit="8" fill="#FFE7AD"/><text font-family="Arial,Arial_MSFontService,sans-serif" font-weight="700" font-size="16" transform="translate(527.421 554)">Documentation and Report</text><g clip-path="url(#clip5)"><g filter="url(#fx0)" transform="translate(407 209)"><g><path d="M7.32852 9.32843 31.3285 89.8284 7.32852 170.328Z" stroke="#042433" stroke-miterlimit="8" fill="#B4E5A2" fill-rule="evenodd"/></g></g></g><path d="M411.5 215.5 435.5 296 411.5 376.5Z" stroke="#042433" stroke-width="0.666667" stroke-miterlimit="8" fill="#B4E5A2" fill-rule="evenodd"/><g clip-path="url(#clip6)"><g filter="url(#fx1)" transform="translate(822 209)"><g><path d="M30.3285 170.328 7.32849 89.8285 30.3285 9.32849Z" stroke="#042433" stroke-miterlimit="8" fill="#B4E5A2" fill-rule="evenodd"/></g></g></g><path d="M849.5 376.5 826.5 296 849.5 215.5Z" stroke="#042433" stroke-width="0.666667" stroke-miterlimit="8" fill="#B4E5A2" fill-rule="evenodd"/><g clip-path="url(#clip7)"><g filter="url(#fx2)" transform="translate(573 267)"><g><path d="M111.328 7.32849 60.3285 21.3285 9.3285 7.32849Z" stroke="#042433" stroke-miterlimit="8" fill="#B4E5A2" fill-rule="evenodd"/></g></g></g><path d="M681.5 271.5 630.5 285.5 579.5 271.5Z" stroke="#042433" stroke-width="0.666667" stroke-miterlimit="8" fill="#B4E5A2" fill-rule="evenodd"/><g clip-path="url(#clip8)"><g filter="url(#fx3)" transform="translate(573 347)"><g><path d="M111.328 7.32849 60.3285 21.3285 9.3285 7.32849Z" stroke="#042433" stroke-miterlimit="8" fill="#B4E5A2" fill-rule="evenodd"/></g></g></g><path d="M681.5 351.5 630.5 365.5 579.5 351.5Z" stroke="#042433" stroke-width="0.666667" stroke-miterlimit="8" fill="#B4E5A2" fill-rule="evenodd"/><g clip-path="url(#clip9)"><g filter="url(#fx4)" transform="translate(544 485)"><g><path d="M9.32849 30.3285 89.8285 7.32849 170.328 30.3285Z" stroke="#042433" stroke-miterlimit="8" fill="#B4E5A2" fill-rule="evenodd"/></g></g></g><path d="M550.5 512.5 631 489.5 711.5 512.5Z" stroke="#042433" stroke-width="0.666667" stroke-miterlimit="8" fill="#B4E5A2" fill-rule="evenodd"/></g></svg>